# xmcd CD database file
#
# Track frame offsets:
#	150
#	82020
#	124705
#
# Disc length: 4005 seconds
#
# Revision: 0
# Processed by: cddbd v1.5.2PL0 Copyright (c) Steve Scherf et al.
# Submitted via: CDex 1.51
#
DISCID=1e0fa303
DTITLE=Aardvark Jazz Orchestra - The Seeker
DYEAR=1999
DGENRE=Jazz
TTITLE0=The Seeker
TTITLE1=Heartsong
TTITLE2=Passages/Psalms IV
EXTD=YEAR: 1999
EXTT0=
EXTT1=
EXTT2=
PLAYORDER=
